<?xml version="1.0" standalone="no"?>
<!DOCTYPE svg PUBLIC "-//W3C//DTD SVG 20010904//EN"
 "http://www.w3.org/TR/2001/REC-SVG-20010904/DTD/svg10.dtd">
<svg version="1.0" xmlns="http://www.w3.org/2000/svg"
 width="460.000000pt" height="460.000000pt" viewBox="0 0 460.000000 460.000000"
 preserveAspectRatio="xMidYMid meet">
<metadata>
Created by potrace 1.11, written by Peter Selinger 2001-2013
</metadata>
<g transform="translate(0.000000,460.000000) scale(0.100000,-0.100000)"
fill="#000000" stroke="none">
<path d="M0 2300 l0 -2300 2300 0 2300 0 0 2300 0 2300 -2300 0 -2300 0 0
-2300z m2800 962 c0 -5 12 -13 28 -19 23 -9 24 -11 6 -12 -11 -1 -29 8 -39 19
-10 11 -13 20 -7 20 7 0 12 -4 12 -8z m95 -72 c18 -19 17 -20 -4 -20 -12 0
-19 4 -16 10 3 6 -1 10 -9 10 -9 0 -16 5 -16 10 0 17 26 11 45 -10z m46 -50
c10 -6 19 -15 19 -20 0 -17 -26 -11 -45 10 -20 22 -7 27 26 10z m44 -60 c18
-19 17 -20 -1 -20 -20 0 -44 17 -44 32 0 15 27 8 45 -12z m43 -52 c17 -17 15
-38 -3 -38 -12 0 -35 28 -35 44 0 11 26 6 38 -6z m-736 -56 c7 -7 20 -12 29
-12 10 0 21 -5 25 -11 5 -9 -34 -10 -152 -5 -240 11 -243 11 -326 2 -81 -8
-103 2 -50 22 47 19 72 21 270 18 132 -2 196 -6 204 -14z m778 -12 c9 -17 8
-20 -8 -20 -18 0 -42 18 -42 32 0 17 40 7 50 -12z m-1306 -37 c7 -8 -59 -43
-81 -43 -30 0 -5 34 32 43 31 7 41 8 49 0z m654 -9 c4 -6 16 -15 27 -20 14 -6
-9 -10 -80 -12 -80 -2 -106 1 -132 15 -18 10 -33 21 -33 25 0 12 210 4 218 -8z
m682 -19 c0 -22 -37 -18 -43 4 -3 11 -2 22 0 25 9 9 43 -14 43 -29z m-1449
-42 c-13 -9 -35 -17 -48 -19 -24 -2 -24 -2 -7 17 10 11 30 19 48 19 l30 0 -23
-17z m855 3 c41 -31 -22 -41 -183 -31 -97 6 -115 10 -124 26 -9 18 -4 19 139
19 112 0 153 -3 168 -14z m619 -7 c4 -11 4 -23 0 -27 -9 -9 -40 13 -43 32 -5
24 35 20 43 -5z m-1568 -59 c-27 -22 -47 -26 -47 -10 0 6 7 10 15 10 8 0 15 5
15 10 0 6 10 10 21 10 21 0 21 -1 -4 -20z m1018 -6 c5 -11 18 -28 28 -38 23
-24 21 -36 -5 -37 -18 0 -15 -3 12 -12 47 -16 52 -44 8 -50 -25 -3 -22 -4 15
-5 44 -2 48 -4 45 -24 -3 -20 -10 -23 -59 -26 -50 -3 -59 -1 -73 19 -12 18
-13 25 -3 31 8 5 5 8 -8 8 -24 0 -53 30 -47 48 2 7 -5 12 -16 12 -11 0 -25 7
-32 15 -7 8 -19 15 -28 15 -8 0 -12 3 -8 7 4 4 -26 19 -66 35 l-73 27 150 -2
c140 -2 150 -3 160 -23z m575 -15 c6 -23 9 -48 6 -55 -3 -8 1 -17 9 -20 8 -4
15 -15 15 -25 0 -14 -7 -19 -26 -19 -24 0 -26 3 -21 29 4 16 2 31 -3 33 -6 2
-12 17 -14 33 -2 17 -7 38 -11 48 -5 13 -2 17 14 17 15 0 23 -10 31 -41z
m-1660 -39 c-27 -20 -36 -19 -27 5 4 8 17 15 29 15 l23 0 -25 -20z m1377 -55
c8 -22 -6 -33 -17 -15 -13 20 -12 30 0 30 6 0 13 -7 17 -15z m-1437 -9 c0 -3
-4 -8 -10 -11 -5 -3 -10 -1 -10 4 0 6 5 11 10 11 6 0 10 -2 10 -4z m-20 -30
c0 -3 -4 -8 -10 -11 -5 -3 -10 -1 -10 4 0 6 5 11 10 11 6 0 10 -2 10 -4z
m1463 -16 c3 -11 1 -20 -4 -20 -5 0 -9 2 -9 4 0 2 -3 11 -6 20 -3 9 -2 16 4
16 5 0 12 -9 15 -20z m317 -6 c0 -21 -4 -25 -22 -22 -15 2 -24 11 -26 26 -3
18 1 22 22 22 21 0 26 -5 26 -26z m-492 -61 c1 -15 8 -30 15 -35 6 -4 7 -8 2
-8 -15 0 -13 -43 3 -59 16 -16 6 -28 -28 -34 -21 -4 -20 -4 8 -6 21 -1 32 -6
32 -15 0 -19 -15 -28 -60 -37 -34 -6 -33 -7 13 -8 40 -1 47 -4 47 -21 0 -11
-7 -20 -16 -20 -8 0 -12 -5 -9 -10 4 -6 11 -8 16 -5 5 4 12 -1 15 -9 3 -9 10
-16 16 -16 5 0 6 5 3 10 -4 6 5 10 20 10 20 0 28 7 36 30 6 17 18 30 27 31 11
0 12 2 5 6 -18 7 -16 42 3 50 10 4 12 8 4 13 -15 9 -1 40 24 50 15 6 17 9 5 9
-25 1 -31 39 -8 46 30 10 37 -1 37 -55 1 -40 -3 -50 -16 -51 -15 -1 -15 -2 1
-6 10 -3 17 -14 17 -29 0 -19 -5 -24 -27 -25 -25 -2 -26 -2 -5 -6 19 -4 23 -9
18 -26 -4 -12 -8 -29 -10 -37 -21 -85 -28 -100 -49 -101 -16 -1 -18 -2 -5 -6
16 -4 16 -6 2 -29 -9 -13 -26 -25 -38 -25 -17 -1 -17 -2 -3 -6 23 -6 22 -18
-6 -40 -13 -10 -26 -26 -30 -36 -4 -11 -16 -21 -27 -24 -10 -3 -26 -15 -34
-28 -9 -13 -30 -27 -48 -31 -18 -4 -27 -9 -20 -11 7 -3 -4 -14 -25 -25 -27
-14 -69 -22 -143 -27 l-105 -8 88 -1 c62 -2 87 -6 87 -14 0 -9 3 -9 8 -2 4 6
46 11 97 11 50 1 82 -1 72 -4 -10 -2 -16 -11 -13 -18 4 -10 -7 -15 -42 -18
-46 -3 -46 -3 11 -5 45 -2 57 1 57 13 0 8 9 15 20 15 11 0 20 5 20 10 0 6 16
10 35 10 22 0 35 5 35 13 0 19 37 47 63 47 16 0 18 3 9 9 -11 6 -7 13 14 30
14 11 36 21 48 22 20 0 20 1 1 8 -19 7 -18 9 7 32 14 13 27 33 29 44 2 11 13
21 25 23 16 2 20 9 18 32 -2 24 2 30 19 31 12 0 16 3 10 6 -24 9 -14 42 13 49
22 6 24 8 10 16 -13 8 -14 13 -4 31 13 24 15 29 17 52 1 11 13 15 46 15 44 0
44 0 35 -26 -6 -14 -10 -36 -10 -50 0 -13 -4 -24 -10 -24 -5 0 -10 -13 -10
-30 0 -22 -5 -30 -17 -31 -16 0 -16 -1 -2 -7 24 -10 6 -52 -23 -53 -18 -1 -19
-2 -5 -6 10 -3 16 -8 15 -11 -2 -4 -12 -24 -21 -45 -10 -21 -25 -41 -35 -45
-9 -4 -17 -13 -18 -19 -1 -7 -2 -20 -2 -28 -1 -8 -12 -15 -24 -16 -13 0 -17
-3 -10 -6 23 -9 -27 -53 -62 -54 l-31 -1 28 -7 c27 -6 27 -6 8 -22 -10 -10
-28 -20 -40 -24 -12 -3 -19 -10 -16 -15 7 -11 -40 -40 -65 -40 -11 0 -20 -6
-20 -13 0 -16 -68 -47 -104 -47 -15 0 -25 -4 -21 -9 22 -37 -307 -57 -406 -25
-35 12 -47 19 -37 25 9 6 5 9 -13 9 -40 0 -88 20 -100 41 -5 10 -17 19 -27 19
-21 0 -121 100 -101 101 8 0 4 5 -8 11 -22 11 -25 15 -27 41 -1 6 -9 20 -19
30 -15 15 -16 21 -6 33 9 11 8 14 -5 14 -9 0 -16 6 -17 13 0 6 -2 29 -5 50 -4
33 -2 37 18 38 l23 0 -22 9 c-28 11 -31 49 -5 51 16 1 16 2 0 6 -23 6 -23 18
2 43 11 11 16 20 10 20 -17 0 -11 18 12 40 12 11 19 20 15 20 -4 0 -3 9 3 20
6 11 20 20 31 20 11 0 17 5 14 10 -3 6 -3 19 0 30 5 15 16 20 43 21 27 0 32 2
18 8 -17 7 -17 8 7 24 24 16 77 22 166 19 41 -2 43 -4 39 -27 -4 -19 -1 -25
12 -25 21 0 34 -26 19 -36 -6 -3 -34 -10 -63 -14 -50 -7 -50 -8 -11 -9 l40 -2
-30 -15 c-51 -25 -70 -39 -73 -54 -15 -67 -18 -100 -10 -100 6 0 8 -13 6 -30
-4 -23 0 -30 15 -32 11 -2 25 -12 31 -23 6 -11 16 -23 21 -27 21 -16 170 -4
160 13 -8 12 36 39 64 39 13 0 21 3 18 7 -11 10 34 53 57 54 19 0 19 1 3 7
-16 7 -16 9 5 32 12 13 23 29 24 34 7 43 27 96 36 96 9 0 9 3 0 12 -16 16 -15
48 1 48 8 0 8 3 -2 9 -8 5 -12 19 -9 35 3 14 1 27 -5 29 -5 1 -9 15 -9 30 0
15 -3 27 -7 27 -3 0 -12 9 -19 20 -12 19 -10 20 56 20 66 0 68 -1 70 -27z
m205 7 c4 -16 0 -20 -17 -20 -15 0 -22 7 -23 20 -1 13 4 20 16 20 10 0 21 -9
24 -20z m294 -8 c-3 -15 -2 -34 3 -42 5 -8 6 -18 3 -24 -4 -5 -7 -35 -7 -65
l-1 -56 -35 0 c-29 0 -36 4 -38 23 -3 17 2 22 20 23 17 1 18 3 6 6 -28 7 -22
40 10 51 24 9 24 11 5 11 -19 1 -21 6 -20 51 2 48 3 50 31 50 26 0 28 -3 23
-28z"/>
<path d="M2700 2242 c0 -4 16 -6 35 -4 19 2 35 6 35 8 0 2 -16 4 -35 4 -19 0
-35 -4 -35 -8z"/>
</g>
</svg>
